<svg id="svg" xmlns="http://www.w3.org/2000/svg" xmlns:xlink="http://www.w3.org/1999/xlink" width="400" height="662.6262626262627" viewBox="0, 0, 400,662.6262626262627"><g id="svgg"><path id="path0" d="M188.442 18.965 C 184.146 23.261,185.544 39.733,190.462 42.772 C 196.178 46.305,191.880 118.511,185.833 120.539 C 175.362 124.051,183.701 129.293,199.762 129.293 C 217.556 129.293,227.203 123.988,216.723 119.966 C 207.855 116.564,203.962 51.404,211.902 39.286 C 217.494 30.751,217.502 28.961,211.976 21.955 C 206.029 14.415,205.853 14.492,206.947 24.143 C 207.755 31.267,205.880 34.581,200.432 35.661 C 194.385 36.861,193.248 35.402,195.002 28.694 C 197.240 20.138,193.225 14.183,188.442 18.965 M200.837 114.094 C 199.871 119.120,199.044 115.960,198.999 107.071 C 198.954 98.182,199.745 94.070,200.756 97.933 C 201.767 101.796,201.804 109.068,200.837 114.094 M173.737 167.677 C 173.737 185.185,175.443 197.980,177.778 197.980 C 180.112 197.980,181.818 185.185,181.818 167.677 C 181.818 150.168,180.112 137.374,177.778 137.374 C 175.443 137.374,173.737 150.168,173.737 167.677 M189.899 141.414 C 189.899 143.636,194.337 145.455,199.762 145.455 C 205.186 145.455,210.748 143.636,212.121 141.414 C 213.578 139.057,209.470 137.374,202.259 137.374 C 195.461 137.374,189.899 139.192,189.899 141.414 M222.222 167.677 C 222.222 185.185,223.928 197.980,226.263 197.980 C 228.597 197.980,230.303 185.185,230.303 167.677 C 230.303 150.168,228.597 137.374,226.263 137.374 C 223.928 137.374,222.222 150.168,222.222 167.677 M189.899 175.758 C 189.899 187.980,191.717 197.980,193.939 197.980 C 196.162 197.980,197.980 187.980,197.980 175.758 C 197.980 163.535,196.162 153.535,193.939 153.535 C 191.717 153.535,189.899 163.535,189.899 175.758 M206.061 175.758 C 206.061 187.980,207.879 197.980,210.101 197.980 C 212.323 197.980,214.141 187.980,214.141 175.758 C 214.141 163.535,212.323 153.535,210.101 153.535 C 207.879 153.535,206.061 163.535,206.061 175.758 M157.576 220.202 C 157.576 230.202,159.394 238.384,161.616 238.384 C 163.838 238.384,165.657 232.851,165.657 226.089 L 165.657 213.794 201.010 214.978 C 236.241 216.158,236.368 216.200,237.642 227.273 C 239.721 245.343,246.465 239.938,246.465 220.202 C 246.465 203.047,243.460 198.290,236.820 204.931 C 232.611 209.140,169.905 209.667,167.339 205.515 C 162.001 196.877,157.576 203.534,157.576 220.202 M186.667 227.071 C 180.811 232.926,180.175 254.545,185.859 254.545 C 188.081 254.545,189.899 249.285,189.899 242.857 C 189.899 236.296,192.507 230.167,195.843 228.887 C 203.365 226.000,214.141 236.522,214.141 246.753 C 214.141 251.039,215.960 254.545,218.182 254.545 C 223.302 254.545,223.342 245.894,218.282 232.586 C 213.951 221.196,195.722 218.015,186.667 227.071 M149.495 250.505 C 149.495 252.727,155.057 254.545,161.855 254.545 C 169.066 254.545,173.174 252.862,171.717 250.505 C 170.344 248.283,164.782 246.465,159.358 246.465 C 153.933 246.465,149.495 248.283,149.495 250.505 M230.303 250.505 C 230.303 252.727,234.848 254.545,240.404 254.545 C 245.960 254.545,250.505 252.727,250.505 250.505 C 250.505 248.283,245.960 246.465,240.404 246.465 C 234.848 246.465,230.303 248.283,230.303 250.505 M133.333 266.667 C 133.333 269.197,158.249 270.707,200.000 270.707 C 241.751 270.707,266.667 269.197,266.667 266.667 C 266.667 264.136,241.751 262.626,200.000 262.626 C 158.249 262.626,133.333 264.136,133.333 266.667 M141.414 298.990 C 141.414 316.498,142.492 319.192,149.495 319.192 C 156.498 319.192,157.576 316.498,157.576 298.990 C 157.576 281.481,156.498 278.788,149.495 278.788 C 142.492 278.788,141.414 281.481,141.414 298.990 M165.657 298.751 C 165.657 309.994,167.475 319.192,169.697 319.192 C 171.919 319.192,173.737 311.117,173.737 301.249 C 173.737 291.380,171.919 282.181,169.697 280.808 C 167.207 279.269,165.657 286.153,165.657 298.751 M181.818 298.751 C 181.818 309.994,183.636 319.192,185.859 319.192 C 188.081 319.192,189.899 311.117,189.899 301.249 C 189.899 291.380,188.081 282.181,185.859 280.808 C 183.368 279.269,181.818 286.153,181.818 298.751 M197.980 298.751 C 197.980 309.994,199.798 319.192,202.020 319.192 C 204.242 319.192,206.061 311.117,206.061 301.249 C 206.061 291.380,204.242 282.181,202.020 280.808 C 199.530 279.269,197.980 286.153,197.980 298.751 M214.141 298.751 C 214.141 309.994,215.960 319.192,218.182 319.192 C 220.404 319.192,222.222 311.117,222.222 301.249 C 222.222 291.380,220.404 282.181,218.182 280.808 C 215.692 279.269,214.141 286.153,214.141 298.751 M230.303 298.751 C 230.303 309.994,232.121 319.192,234.343 319.192 C 236.566 319.192,238.384 311.117,238.384 301.249 C 238.384 291.380,236.566 282.181,234.343 280.808 C 231.853 279.269,230.303 286.153,230.303 298.751 M246.465 298.990 C 246.465 315.540,247.743 319.192,253.539 319.192 C 260.199 319.192,262.149 307.066,259.222 283.838 C 257.184 267.660,246.465 280.390,246.465 298.990 M141.414 400.000 L 141.414 472.727 163.142 472.727 C 177.526 472.727,186.569 470.679,189.899 466.667 C 192.665 463.333,197.211 460.606,200.000 460.606 C 202.789 460.606,207.335 463.333,210.101 466.667 C 216.956 474.926,256.812 475.096,259.965 466.879 C 266.249 450.505,260.641 329.408,253.535 328.041 C 247.032 326.789,246.465 332.033,246.465 393.405 C 246.465 433.529,244.854 461.125,242.424 462.626 C 239.793 464.252,238.384 441.872,238.384 398.457 C 238.384 358.371,236.773 330.794,234.343 329.293 C 231.712 327.667,230.303 350.047,230.303 393.462 C 230.303 433.549,228.692 461.125,226.263 462.626 C 223.631 464.252,222.222 441.872,222.222 398.457 C 222.222 358.371,220.611 330.794,218.182 329.293 C 215.552 327.668,214.141 349.532,214.141 391.919 C 214.141 434.306,212.731 456.171,210.101 454.545 C 207.690 453.055,206.061 426.894,206.061 389.661 C 206.061 350.762,204.539 327.273,202.020 327.273 C 199.512 327.273,197.956 349.873,197.918 386.869 C 197.884 419.646,196.094 449.192,193.939 452.525 C 191.322 456.576,190.002 436.813,189.961 392.929 C 189.922 351.893,188.384 327.273,185.859 327.273 C 183.323 327.273,181.818 352.862,181.818 395.960 C 181.818 439.057,180.313 464.646,177.778 464.646 C 175.243 464.646,173.737 439.057,173.737 395.960 C 173.737 352.862,172.232 327.273,169.697 327.273 C 167.162 327.273,165.657 352.862,165.657 395.960 C 165.657 439.057,164.151 464.646,161.616 464.646 C 159.081 464.646,157.576 439.057,157.576 395.960 C 157.576 329.966,157.259 327.273,149.495 327.273 C 141.713 327.273,141.414 329.966,141.414 400.000 M117.172 488.889 C 117.172 499.167,166.156 501.088,176.046 491.198 C 185.535 481.709,183.233 480.808,149.495 480.808 C 119.865 480.808,117.172 481.481,117.172 488.889 M222.222 483.117 C 222.222 491.881,236.216 496.970,260.317 496.970 C 284.175 496.970,286.869 496.150,286.869 488.889 C 286.869 481.481,284.175 480.808,254.545 480.808 C 236.768 480.808,222.222 481.847,222.222 483.117 M186.667 501.818 C 183.632 504.853,181.818 519.939,181.818 542.149 L 181.818 577.632 202.020 577.177 L 222.222 576.722 222.222 545.826 C 222.222 504.147,205.292 483.192,186.667 501.818 M68.687 509.091 C 68.687 511.540,86.195 513.131,113.131 513.131 C 140.067 513.131,157.576 511.540,157.576 509.091 C 157.576 506.642,140.067 505.051,113.131 505.051 C 86.195 505.051,68.687 506.642,68.687 509.091 M212.283 514.357 C 218.543 539.298,212.697 567.611,201.010 568.955 L 189.899 570.234 189.899 540.336 C 189.899 523.892,191.111 509.226,192.593 507.744 C 198.662 501.674,210.061 505.503,212.283 514.357 M246.465 509.091 C 246.465 511.528,263.300 513.131,288.889 513.131 C 314.478 513.131,331.313 511.528,331.313 509.091 C 331.313 506.654,314.478 505.051,288.889 505.051 C 263.300 505.051,246.465 506.654,246.465 509.091 M165.657 545.693 C 165.657 566.372,167.131 577.343,169.697 575.758 C 171.919 574.384,173.737 559.731,173.737 543.196 C 173.737 525.846,172.029 513.131,169.697 513.131 C 167.338 513.131,165.657 526.679,165.657 545.693 M230.303 545.693 C 230.303 566.372,231.777 577.343,234.343 575.758 C 236.566 574.384,238.384 559.731,238.384 543.196 C 238.384 525.846,236.675 513.131,234.343 513.131 C 231.984 513.131,230.303 526.679,230.303 545.693 M52.525 525.253 C 52.525 527.475,56.162 529.293,60.606 529.293 C 65.051 529.293,68.687 527.475,68.687 525.253 C 68.687 523.030,65.051 521.212,60.606 521.212 C 56.162 521.212,52.525 523.030,52.525 525.253 M76.768 579.798 L 76.768 638.384 64.646 638.384 C 48.196 638.384,49.144 646.357,65.657 646.881 C 80.362 647.348,319.011 647.251,336.364 646.772 C 351.507 646.353,350.547 638.384,335.354 638.384 L 323.232 638.384 323.232 579.798 C 323.232 543.434,321.700 521.212,319.192 521.212 C 316.684 521.212,315.152 543.434,315.152 579.798 L 315.152 638.384 305.051 638.384 C 296.593 638.384,294.949 636.473,294.949 626.641 C 294.949 616.909,293.573 615.258,286.914 616.999 C 282.495 618.155,279.773 620.548,280.867 622.317 C 284.784 628.656,277.761 638.384,269.265 638.386 C 260.751 638.389,260.628 637.410,261.927 579.801 C 263.213 522.759,263.026 521.212,254.856 521.212 C 246.747 521.212,246.465 523.183,246.465 579.798 C 246.465 635.690,246.093 638.384,238.384 638.384 C 231.132 638.384,230.303 635.690,230.303 612.121 C 230.303 587.892,226.509 579.693,220.098 590.067 C 217.095 594.927,181.818 594.076,181.818 589.144 C 181.818 587.337,180.000 585.859,177.778 585.859 C 175.499 585.859,173.737 597.306,173.737 612.121 C 173.737 635.690,172.909 638.384,165.657 638.384 C 157.947 638.384,157.576 635.690,157.576 579.798 C 157.576 523.906,157.204 521.212,149.495 521.212 C 141.786 521.212,141.414 523.906,141.414 579.798 L 141.414 638.384 131.582 638.384 C 123.867 638.384,121.473 635.998,120.470 627.307 C 118.563 610.785,105.051 609.610,105.051 625.966 C 105.051 636.518,103.533 638.384,94.949 638.384 L 84.848 638.384 84.848 579.798 C 84.848 543.434,83.316 521.212,80.808 521.212 C 78.300 521.212,76.768 543.434,76.768 579.798 M92.929 563.636 C 92.929 589.226,94.533 606.061,96.970 606.061 C 99.407 606.061,101.010 589.226,101.010 563.636 C 101.010 538.047,99.407 521.212,96.970 521.212 C 94.533 521.212,92.929 538.047,92.929 563.636 M109.091 563.636 C 109.091 589.226,110.694 606.061,113.131 606.061 C 115.568 606.061,117.172 589.226,117.172 563.636 C 117.172 538.047,115.568 521.212,113.131 521.212 C 110.694 521.212,109.091 538.047,109.091 563.636 M125.253 563.636 C 125.253 589.226,126.856 606.061,129.293 606.061 C 131.730 606.061,133.333 589.226,133.333 563.636 C 133.333 538.047,131.730 521.212,129.293 521.212 C 126.856 521.212,125.253 538.047,125.253 563.636 M272.218 563.636 C 272.228 588.081,272.893 597.560,273.697 584.701 C 274.502 571.842,274.494 551.842,273.681 540.257 C 272.867 528.671,272.209 539.192,272.218 563.636 M283.117 563.636 C 283.489 586.970,285.395 606.061,287.352 606.061 C 289.308 606.061,290.909 586.970,290.909 563.636 C 290.909 536.747,289.358 521.212,286.674 521.212 C 283.947 521.212,282.680 536.316,283.117 563.636 M298.990 563.636 C 298.990 589.226,300.593 606.061,303.030 606.061 C 305.467 606.061,307.071 589.226,307.071 563.636 C 307.071 538.047,305.467 521.212,303.030 521.212 C 300.593 521.212,298.990 538.047,298.990 563.636 M333.333 525.253 C 334.707 527.475,338.450 529.293,341.653 529.293 C 344.855 529.293,347.475 527.475,347.475 525.253 C 347.475 523.030,343.731 521.212,339.155 521.212 C 334.580 521.212,331.960 523.030,333.333 525.253 M60.606 583.838 C 60.606 612.121,62.187 630.303,64.646 630.303 C 67.106 630.303,68.687 612.121,68.687 583.838 C 68.687 555.556,67.106 537.374,64.646 537.374 C 62.187 537.374,60.606 555.556,60.606 583.838 M331.313 583.838 C 331.313 612.121,332.894 630.303,335.354 630.303 C 337.813 630.303,339.394 612.121,339.394 583.838 C 339.394 555.556,337.813 537.374,335.354 537.374 C 332.894 537.374,331.313 555.556,331.313 583.838 M220.932 620.202 C 221.536 636.915,221.124 638.250,218.547 627.930 C 210.863 597.166,189.318 597.391,184.801 628.283 C 183.631 636.287,182.823 633.346,182.424 619.626 L 181.818 598.847 201.010 599.424 L 220.202 600.000 220.932 620.202 M209.359 627.307 C 210.388 636.221,209.008 638.384,202.289 638.384 C 195.661 638.384,193.939 635.823,193.939 625.966 C 193.939 609.610,207.452 610.785,209.359 627.307 " stroke="none" fill="#000000" fill-rule="evenodd"></path></g></svg>