<svg id="svg" xmlns="http://www.w3.org/2000/svg" xmlns:xlink="http://www.w3.org/1999/xlink" width="400" height="680" viewBox="0, 0, 400,680"><g id="svgg"><path id="path0" d="M236.000 20.000 C 236.000 22.200,230.321 24.000,223.380 24.000 C 211.013 24.000,210.905 24.161,218.000 32.000 C 221.982 36.400,227.661 40.000,230.620 40.000 C 233.579 40.000,236.000 43.600,236.000 48.000 C 236.000 52.400,234.200 56.000,232.000 56.000 C 229.800 56.000,228.000 57.800,228.000 60.000 C 228.000 62.200,233.400 64.000,240.000 64.000 C 246.600 64.000,252.000 62.200,252.000 60.000 C 252.000 57.800,250.200 56.000,248.000 56.000 C 245.800 56.000,244.000 47.000,244.000 36.000 C 244.000 25.000,242.200 16.000,240.000 16.000 C 237.800 16.000,236.000 17.800,236.000 20.000 M214.612 79.361 C 199.172 95.477,203.791 112.000,223.737 112.000 C 229.697 112.000,229.085 101.066,223.000 98.829 C 219.200 97.432,219.623 94.014,224.763 84.585 C 233.645 68.291,228.000 65.387,214.612 79.361 M236.000 117.533 C 236.000 161.122,235.623 163.166,227.175 165.375 C 214.584 168.667,219.743 171.717,241.328 173.740 C 257.927 175.296,260.000 174.600,260.000 167.476 C 260.000 161.281,258.183 160.038,252.000 162.000 C 244.315 164.439,244.000 162.719,244.000 118.270 C 244.000 90.090,242.436 72.000,240.000 72.000 C 237.568 72.000,236.000 89.844,236.000 117.533 M214.612 127.361 C 199.099 143.553,204.969 160.000,226.260 160.000 C 230.385 160.000,227.538 148.497,223.000 146.829 C 219.200 145.432,219.623 142.014,224.763 132.585 C 233.645 116.291,228.000 113.387,214.612 127.361 M210.346 202.952 C 185.169 254.001,193.854 282.067,228.000 260.000 C 234.079 256.072,232.418 255.143,218.000 254.408 C 207.330 253.864,207.945 233.088,219.407 206.949 C 234.454 172.630,226.937 169.314,210.346 202.952 M238.846 182.488 C 234.642 186.692,235.355 412.000,239.572 412.000 C 241.537 412.000,244.258 409.097,245.619 405.550 C 247.643 400.277,249.199 400.016,254.144 404.120 C 261.739 410.423,266.737 406.118,260.521 398.627 C 256.959 394.336,257.325 391.880,262.120 387.900 C 271.004 380.527,279.439 389.036,272.060 397.927 C 265.309 406.063,269.937 410.691,278.073 403.940 C 282.819 400.000,285.462 399.862,288.970 403.370 C 294.935 409.335,310.694 409.350,314.375 403.394 C 316.349 400.199,318.859 401.028,322.569 406.102 C 336.711 425.442,330.711 405.013,314.678 379.236 C 282.178 326.982,266.692 278.989,260.441 211.153 C 257.803 182.525,256.799 179.365,253.085 188.000 L 248.783 198.000 245.237 188.821 C 243.287 183.773,240.411 180.923,238.846 182.488 M250.354 214.980 C 245.984 219.349,242.988 212.400,246.125 205.173 C 249.100 198.319,249.315 198.325,250.973 205.313 C 251.927 209.335,251.648 213.685,250.354 214.980 M254.400 246.400 C 252.464 251.446,250.538 252.138,247.338 248.938 C 244.918 246.518,244.136 241.416,245.600 237.600 C 247.536 232.554,249.462 231.862,252.662 235.062 C 255.082 237.482,255.864 242.584,254.400 246.400 M258.215 272.349 C 262.337 279.018,253.067 286.667,247.549 281.149 C 242.933 276.533,245.822 268.000,252.000 268.000 C 253.940 268.000,256.737 269.957,258.215 272.349 M188.488 289.412 C 183.626 295.271,186.386 300.000,194.667 300.000 C 200.625 300.000,201.968 289.689,196.453 286.280 C 194.503 285.074,190.918 286.484,188.488 289.412 M254.571 317.909 C 250.048 327.494,249.992 327.502,246.863 319.043 C 242.385 306.937,246.433 297.720,253.611 303.677 C 257.950 307.278,258.155 310.314,254.571 317.909 M184.136 321.589 C 181.520 329.515,178.169 336.230,176.690 336.510 C 175.210 336.791,169.893 337.448,164.873 337.970 C 152.247 339.284,150.909 341.424,150.909 360.306 C 150.909 388.935,170.349 389.557,172.777 361.005 C 174.473 341.060,181.765 340.584,189.499 359.915 C 196.722 377.966,198.199 404.000,192.000 404.000 C 189.800 404.000,188.000 405.800,188.000 408.000 C 188.000 410.200,191.837 412.000,196.526 412.000 C 205.564 412.000,205.676 402.957,197.485 335.000 C 194.919 313.717,197.709 311.900,213.671 324.456 C 226.526 334.568,232.852 331.074,221.764 319.986 C 206.228 304.450,189.558 305.160,184.136 321.589 M160.000 315.572 C 160.000 320.008,172.306 325.028,175.457 321.877 C 176.728 320.605,175.120 317.890,171.884 315.844 C 164.405 311.114,160.000 311.013,160.000 315.572 M271.519 330.580 C 268.033 334.780,265.620 335.004,261.420 331.519 C 257.220 328.033,256.996 325.620,260.481 321.420 C 263.967 317.220,266.380 316.996,270.580 320.481 C 274.780 323.967,275.004 326.380,271.519 330.580 M255.419 346.700 C 249.438 353.906,241.928 347.170,245.516 337.818 C 247.620 332.336,249.200 332.016,254.097 336.080 C 258.755 339.946,259.051 342.324,255.419 346.700 M286.300 351.033 C 282.237 355.096,274.881 345.047,278.102 339.835 C 280.308 336.266,282.122 336.786,284.920 341.786 C 287.017 345.534,287.638 349.695,286.300 351.033 M269.892 344.175 C 268.472 346.472,269.550 351.048,272.286 354.345 C 279.232 362.715,270.938 371.418,262.606 364.503 C 256.652 359.562,261.924 340.102,269.236 340.031 C 271.016 340.014,271.311 341.879,269.892 344.175 M356.000 344.000 C 356.000 346.200,349.421 348.000,341.380 348.000 C 327.013 348.000,326.886 348.139,334.000 356.000 C 337.982 360.400,344.561 364.000,348.620 364.000 C 354.563 364.000,356.000 367.115,356.000 380.000 C 356.000 388.800,357.800 396.000,360.000 396.000 C 362.286 396.000,364.000 384.000,364.000 368.000 C 364.000 352.000,362.286 340.000,360.000 340.000 C 357.800 340.000,356.000 341.800,356.000 344.000 M163.878 361.000 C 163.775 372.047,163.124 372.912,159.544 366.757 C 157.226 362.773,156.325 356.923,157.540 353.757 C 161.237 344.122,164.007 347.287,163.878 361.000 M258.215 372.349 C 262.337 379.018,253.067 386.667,247.549 381.149 C 242.933 376.533,245.822 368.000,252.000 368.000 C 253.940 368.000,256.737 369.957,258.215 372.349 M290.215 372.349 C 294.337 379.018,285.067 386.667,279.549 381.149 C 274.933 376.533,277.822 368.000,284.000 368.000 C 285.940 368.000,288.737 369.957,290.215 372.349 M72.000 384.000 C 72.000 386.200,67.050 388.057,61.000 388.126 L 50.000 388.253 61.000 397.935 C 67.589 403.734,72.000 411.703,72.000 417.808 C 72.000 423.414,73.800 428.000,76.000 428.000 C 78.222 428.000,80.000 417.333,80.000 404.000 C 80.000 390.667,78.222 380.000,76.000 380.000 C 73.800 380.000,72.000 381.800,72.000 384.000 M307.612 389.533 C 311.179 393.830,310.692 395.646,305.433 397.664 C 297.499 400.709,289.901 394.632,293.785 388.349 C 297.413 382.477,302.089 382.878,307.612 389.533 M156.000 408.286 C 156.000 433.145,150.707 436.000,104.619 436.000 C 76.406 436.000,64.071 434.531,62.638 431.000 C 61.111 427.237,59.559 427.485,56.366 432.000 C 49.398 441.853,51.253 444.000,66.737 444.000 C 87.027 444.000,110.715 456.398,131.503 477.898 C 141.130 487.854,151.459 496.000,154.456 496.000 C 157.698 496.000,159.520 499.579,158.953 504.836 C 158.315 510.753,160.501 514.190,165.572 515.240 C 171.627 516.493,172.691 515.076,170.884 508.166 C 169.025 501.055,170.163 499.744,177.312 500.763 C 189.928 502.559,190.884 520.201,179.107 533.892 C 167.539 547.341,144.616 549.417,132.161 538.145 C 127.645 534.059,122.735 531.932,121.249 533.418 C 117.313 537.353,144.294 563.921,154.939 566.593 C 165.895 569.343,166.555 576.448,156.685 585.380 C 147.266 593.904,124.720 593.892,115.290 585.358 C 111.254 581.705,106.735 579.932,105.249 581.418 C 101.288 585.378,127.106 610.664,142.635 618.033 C 157.843 625.250,158.377 626.827,149.773 639.110 C 142.409 649.624,119.765 651.357,112.000 642.000 C 106.690 635.602,96.000 633.800,96.000 639.303 C 96.000 641.119,100.370 646.711,105.711 651.729 C 111.052 656.746,114.460 663.360,113.283 666.426 C 111.487 671.105,128.226 672.000,217.572 672.000 C 285.857 672.000,324.000 670.566,324.000 668.000 C 324.000 665.800,321.863 664.000,319.252 664.000 C 316.640 664.000,319.659 658.619,325.960 652.042 C 338.156 639.312,337.084 630.159,324.710 641.358 C 314.590 650.516,287.155 650.116,278.620 640.685 C 269.465 630.569,270.333 625.286,281.615 622.454 C 297.294 618.519,333.532 587.932,328.489 582.889 C 325.422 579.822,322.064 580.512,316.780 585.295 C 305.405 595.589,274.121 594.380,266.394 583.348 C 258.997 572.788,260.576 569.710,274.917 566.730 C 290.047 563.585,317.783 540.183,312.564 534.964 C 309.906 532.306,305.074 533.721,298.116 539.194 C 291.698 544.242,283.478 546.865,276.830 545.985 C 270.874 545.196,264.797 544.427,263.326 544.276 C 247.733 542.668,241.193 500.000,256.539 500.000 C 262.719 500.000,263.961 501.820,262.000 508.000 C 260.020 514.239,261.281 516.000,267.730 516.000 C 273.196 516.000,276.000 513.416,276.000 508.380 C 276.000 502.925,280.831 499.230,293.000 495.380 C 309.621 490.120,310.231 489.293,320.352 458.310 L 330.704 426.620 351.352 418.774 C 374.501 409.978,378.001 404.000,360.000 404.000 C 353.400 404.000,348.000 405.591,348.000 407.537 C 348.000 412.066,299.239 430.145,277.000 433.862 C 261.521 436.449,260.000 435.956,260.000 428.352 C 260.000 420.347,258.007 420.000,212.000 420.000 L 164.000 420.000 164.000 406.000 C 164.000 398.300,162.200 392.000,160.000 392.000 C 157.800 392.000,156.000 399.329,156.000 408.286 M318.356 438.515 C 316.981 442.098,313.888 452.844,311.484 462.394 C 305.692 485.394,299.246 489.909,271.386 490.478 C 247.116 490.973,243.841 488.731,254.000 478.571 C 263.955 468.617,261.701 468.000,215.380 468.000 C 172.406 468.000,171.004 468.270,177.380 475.315 C 185.934 484.767,185.793 490.588,177.000 490.973 C 162.355 491.615,143.865 482.992,133.601 470.733 C 127.737 463.730,118.446 455.021,112.953 451.381 C 103.484 445.105,107.819 444.676,196.483 443.115 C 253.252 442.116,293.930 439.708,300.000 436.988 C 314.767 430.371,321.273 430.912,318.356 438.515 M142.000 456.000 C 145.356 461.430,300.000 461.430,300.000 456.000 C 300.000 453.466,270.588 452.000,219.764 452.000 C 167.292 452.000,140.383 453.384,142.000 456.000 M150.000 472.000 C 151.360 474.200,155.066 476.000,158.236 476.000 C 161.406 476.000,164.000 474.200,164.000 472.000 C 164.000 469.800,160.294 468.000,155.764 468.000 C 151.234 468.000,148.640 469.800,150.000 472.000 M268.000 472.000 C 268.000 474.200,273.400 476.000,280.000 476.000 C 286.600 476.000,292.000 474.200,292.000 472.000 C 292.000 469.800,286.600 468.000,280.000 468.000 C 273.400 468.000,268.000 469.800,268.000 472.000 M238.619 495.503 C 235.095 512.705,235.668 516.777,243.474 530.007 C 248.342 538.258,251.694 545.639,250.924 546.410 C 247.048 550.285,221.841 532.042,220.722 524.551 C 219.101 513.707,212.000 513.306,212.000 524.059 C 212.000 531.259,188.852 550.185,184.890 546.224 C 184.076 545.410,186.460 538.845,190.189 531.635 C 195.154 522.033,196.380 512.839,194.773 497.263 L 192.578 476.000 217.596 476.000 L 242.614 476.000 238.619 495.503 M206.000 488.000 C 207.360 490.200,212.866 492.000,218.236 492.000 C 223.606 492.000,228.000 490.200,228.000 488.000 C 228.000 485.800,222.494 484.000,215.764 484.000 C 208.625 484.000,204.558 485.666,206.000 488.000 M210.000 504.000 C 211.360 506.200,215.066 508.000,218.236 508.000 C 221.406 508.000,224.000 506.200,224.000 504.000 C 224.000 501.800,220.294 500.000,215.764 500.000 C 211.234 500.000,208.640 501.800,210.000 504.000 M227.768 545.721 C 235.485 555.019,217.344 563.058,208.533 554.246 C 202.779 548.490,202.716 547.258,208.000 543.917 C 216.458 538.568,222.273 539.099,227.768 545.721 M196.000 556.000 C 200.263 558.755,195.409 559.895,179.236 559.939 C 166.716 559.972,155.360 558.200,154.000 556.000 C 150.772 550.778,187.919 550.778,196.000 556.000 M281.800 555.654 C 274.834 562.353,237.875 562.674,242.000 556.000 C 243.360 553.800,253.726 552.000,265.036 552.000 C 277.554 552.000,284.113 553.430,281.800 555.654 M196.000 572.685 C 196.000 580.982,183.039 592.000,173.277 592.000 C 164.029 592.000,163.948 591.704,170.000 580.000 C 176.256 567.902,196.000 562.348,196.000 572.685 M207.808 582.231 C 200.705 590.790,198.466 586.341,204.346 575.353 C 207.506 569.448,209.968 567.903,211.048 571.145 C 211.988 573.963,210.530 578.952,207.808 582.231 M231.761 579.303 C 236.292 588.003,236.068 588.318,228.303 584.162 C 219.768 579.594,217.992 575.341,222.667 570.667 C 225.779 567.554,225.509 567.298,231.761 579.303 M256.814 580.025 C 262.378 589.803,262.590 592.000,257.970 592.000 C 250.837 592.000,235.565 575.940,238.374 571.394 C 242.512 564.699,250.119 568.259,256.814 580.025 M228.062 594.075 C 238.268 606.372,220.978 618.313,209.111 607.164 C 200.196 598.790,200.029 597.871,206.551 593.102 C 215.742 586.382,221.909 586.661,228.062 594.075 M198.000 608.000 C 205.166 615.918,204.987 616.000,180.421 616.000 C 158.883 616.000,132.000 608.170,132.000 601.897 C 132.000 595.145,191.331 600.631,198.000 608.000 M292.557 608.133 C 283.850 615.386,244.000 620.063,244.000 613.831 C 244.000 605.245,256.407 600.302,278.000 600.285 L 302.000 600.266 292.557 608.133 M188.000 628.685 C 188.000 631.262,185.021 636.662,181.380 640.685 C 173.819 649.039,153.944 650.979,157.664 643.000 C 158.946 640.250,161.106 634.850,162.464 631.000 C 165.266 623.057,188.000 620.996,188.000 628.685 M212.000 629.773 C 212.000 635.184,197.556 648.000,191.457 648.000 C 189.938 648.000,190.733 642.600,193.224 636.000 C 197.882 623.660,212.000 618.978,212.000 629.773 M240.814 636.025 C 244.562 642.611,245.848 648.000,243.673 648.000 C 236.455 648.000,220.000 635.169,220.000 629.540 C 220.000 619.499,233.869 623.820,240.814 636.025 M265.400 636.000 C 270.392 646.005,270.466 648.000,265.849 648.000 C 260.016 648.000,244.000 632.787,244.000 627.246 C 244.000 618.635,260.004 625.182,265.400 636.000 M227.855 649.825 C 234.593 657.944,229.610 664.000,216.192 664.000 C 202.943 664.000,197.231 654.019,207.166 648.227 C 216.737 642.648,222.251 643.073,227.855 649.825 M194.000 660.000 C 195.575 662.548,184.042 664.000,162.236 664.000 C 142.079 664.000,128.000 662.355,128.000 660.000 C 128.000 657.669,141.255 656.000,159.764 656.000 C 177.234 656.000,192.640 657.800,194.000 660.000 M306.000 660.000 C 304.640 662.200,291.034 664.000,275.764 664.000 C 259.921 664.000,248.000 662.282,248.000 660.000 C 248.000 657.686,260.745 656.000,278.236 656.000 C 297.375 656.000,307.565 657.468,306.000 660.000 " stroke="none" fill="#000000" fill-rule="evenodd"></path></g></svg>