<svg id="svg" xmlns="http://www.w3.org/2000/svg" xmlns:xlink="http://www.w3.org/1999/xlink" width="400" height="1080.597014925373" viewBox="0, 0, 400,1080.597014925373"><g id="svgg"><path id="path0" d="M111.332 64.241 C 109.392 67.380,107.811 153.981,107.819 256.687 C 107.832 418.612,106.579 444.813,98.389 453.862 C 90.183 462.929,88.937 489.976,88.887 660.082 C 88.852 779.647,86.495 860.228,82.833 867.071 C 79.535 873.233,76.802 908.992,76.759 946.535 C 76.717 984.079,74.204 1016.327,71.177 1018.198 C 52.052 1030.018,78.001 1032.836,205.970 1032.836 C 295.522 1032.836,346.269 1030.676,346.269 1026.866 C 346.269 1023.582,343.582 1020.896,340.299 1020.896 C 337.015 1020.896,334.328 1013.465,334.328 1004.384 C 334.328 987.054,196.023 840.793,187.600 849.216 C 185.483 851.333,214.945 883.685,253.070 921.109 C 307.449 974.489,322.388 992.613,322.388 1005.203 L 322.388 1021.252 246.269 1019.581 L 170.149 1017.910 168.598 735.821 C 167.602 554.645,164.932 453.731,161.136 453.731 C 157.316 453.731,155.224 554.210,155.224 737.611 L 155.224 1021.491 120.896 1019.701 L 86.567 1017.910 84.871 953.589 L 83.175 889.268 113.229 857.490 L 143.284 825.712 143.284 465.662 C 143.284 105.990,143.296 105.623,155.224 116.418 C 162.631 123.121,167.164 134.806,167.164 147.194 C 167.164 158.178,169.851 167.164,173.134 167.164 C 176.418 167.164,179.104 156.998,179.104 144.572 C 179.104 121.017,119.734 50.645,111.332 64.241 M131.343 455.952 L 131.343 821.647 113.349 838.887 L 95.354 856.127 96.931 662.887 C 97.927 540.787,100.705 468.916,104.478 467.659 C 108.388 466.357,109.984 526.439,109.104 641.790 C 108.255 753.140,109.901 817.910,113.582 817.910 C 117.300 817.910,119.403 685.159,119.403 450.394 C 119.403 206.903,121.418 84.123,125.373 86.567 C 129.248 88.962,131.343 218.595,131.343 455.952 M159.258 183.377 C 157.375 186.424,179.876 212.847,209.261 242.095 C 260.474 293.071,281.701 334.328,256.716 334.328 C 253.032 334.328,250.746 365.057,250.746 414.573 C 250.746 461.630,253.215 496.344,256.716 498.507 C 260.000 500.537,262.687 508.755,262.687 516.770 C 262.687 524.785,265.373 531.343,268.657 531.343 C 272.440 531.343,274.627 487.025,274.627 410.330 L 274.627 289.316 218.654 233.577 C 187.870 202.920,161.141 180.330,159.258 183.377 M155.224 256.716 C 155.224 260.000,165.970 262.687,179.104 262.687 C 192.239 262.687,202.985 260.000,202.985 256.716 C 202.985 253.433,192.239 250.746,179.104 250.746 C 165.970 250.746,155.224 253.433,155.224 256.716 M155.224 292.537 C 155.224 295.949,173.134 298.507,197.015 298.507 C 220.896 298.507,238.806 295.949,238.806 292.537 C 238.806 289.126,220.896 286.567,197.015 286.567 C 173.134 286.567,155.224 289.126,155.224 292.537 M155.224 328.358 C 155.224 331.770,173.134 334.328,197.015 334.328 C 220.896 334.328,238.806 331.770,238.806 328.358 C 238.806 324.947,220.896 322.388,197.015 322.388 C 173.134 322.388,155.224 324.947,155.224 328.358 M158.209 364.179 C 160.238 367.463,179.203 370.149,200.352 370.149 C 222.008 370.149,238.806 367.541,238.806 364.179 C 238.806 360.763,220.778 358.209,196.663 358.209 C 170.087 358.209,155.882 360.414,158.209 364.179 M158.209 400.000 C 160.238 403.284,179.203 405.970,200.352 405.970 C 222.008 405.970,238.806 403.362,238.806 400.000 C 238.806 396.584,220.778 394.030,196.663 394.030 C 170.087 394.030,155.882 396.235,158.209 400.000 M158.209 435.821 C 160.238 439.104,179.203 441.791,200.352 441.791 C 222.008 441.791,238.806 439.183,238.806 435.821 C 238.806 432.405,220.778 429.851,196.663 429.851 C 170.087 429.851,155.882 432.056,158.209 435.821 M205.201 469.877 C 212.216 476.893,238.806 478.450,238.806 471.846 C 238.806 468.450,230.299 465.672,219.900 465.672 C 209.502 465.672,202.888 467.564,205.201 469.877 M183.148 475.900 C 181.265 478.946,206.451 508.065,239.116 540.607 C 296.160 597.437,318.665 638.806,292.537 638.806 C 288.738 638.806,286.567 686.567,286.567 770.149 C 286.567 853.731,288.738 901.493,292.537 901.493 C 295.821 901.493,298.507 909.552,298.507 919.403 C 298.507 929.254,301.194 937.313,304.478 937.313 C 308.319 937.313,310.448 876.084,310.448 765.565 L 310.448 593.817 248.509 532.089 C 214.443 498.139,185.030 472.854,183.148 475.900 M182.090 561.194 C 179.815 564.874,189.988 567.164,208.603 567.164 C 225.215 567.164,238.806 564.478,238.806 561.194 C 238.806 557.910,226.875 555.224,212.293 555.224 C 197.710 555.224,184.119 557.910,182.090 561.194 M182.090 597.015 C 179.746 600.806,195.958 602.985,226.513 602.985 C 254.609 602.985,274.627 600.501,274.627 597.015 C 274.627 593.570,255.839 591.045,230.203 591.045 C 205.770 591.045,184.119 593.731,182.090 597.015 M182.090 632.836 C 179.746 636.627,195.958 638.806,226.513 638.806 C 254.609 638.806,274.627 636.322,274.627 632.836 C 274.627 629.391,255.839 626.866,230.203 626.866 C 205.770 626.866,184.119 629.552,182.090 632.836 M179.104 668.657 C 179.104 672.139,199.005 674.627,226.866 674.627 C 254.726 674.627,274.627 672.139,274.627 668.657 C 274.627 665.174,254.726 662.687,226.866 662.687 C 199.005 662.687,179.104 665.174,179.104 668.657 M179.104 704.478 C 179.104 707.960,199.005 710.448,226.866 710.448 C 254.726 710.448,274.627 707.960,274.627 704.478 C 274.627 700.995,254.726 698.507,226.866 698.507 C 199.005 698.507,179.104 700.995,179.104 704.478 M179.104 740.299 C 179.104 743.781,199.005 746.269,226.866 746.269 C 254.726 746.269,274.627 743.781,274.627 740.299 C 274.627 736.816,254.726 734.328,226.866 734.328 C 199.005 734.328,179.104 736.816,179.104 740.299 M179.104 776.119 C 179.104 779.602,199.005 782.090,226.866 782.090 C 254.726 782.090,274.627 779.602,274.627 776.119 C 274.627 772.637,254.726 770.149,226.866 770.149 C 199.005 770.149,179.104 772.637,179.104 776.119 M179.104 811.940 C 179.104 815.423,199.005 817.910,226.866 817.910 C 254.726 817.910,274.627 815.423,274.627 811.940 C 274.627 808.458,254.726 805.970,226.866 805.970 C 199.005 805.970,179.104 808.458,179.104 811.940 M214.925 847.761 C 214.925 851.045,228.358 853.731,244.776 853.731 C 261.194 853.731,274.627 851.045,274.627 847.761 C 274.627 844.478,261.194 841.791,244.776 841.791 C 228.358 841.791,214.925 844.478,214.925 847.761 M250.746 883.582 C 250.746 886.866,256.119 889.552,262.687 889.552 C 269.254 889.552,274.627 886.866,274.627 883.582 C 274.627 880.299,269.254 877.612,262.687 877.612 C 256.119 877.612,250.746 880.299,250.746 883.582 M191.045 972.430 C 191.045 988.848,193.731 1003.941,197.015 1005.970 C 200.498 1008.123,202.985 1002.052,202.985 991.397 C 202.985 968.398,206.528 968.538,231.822 992.537 C 258.062 1017.434,254.309 1005.658,226.129 974.676 C 193.395 938.687,191.045 938.536,191.045 972.430 " stroke="none" fill="#000000" fill-rule="evenodd"></path></g></svg>