<svg id="svg" xmlns="http://www.w3.org/2000/svg" xmlns:xlink="http://www.w3.org/1999/xlink" width="400" height="400" viewBox="0, 0, 400,400"><g id="svgg"><path id="path0" d="M384.404 21.853 C 381.098 33.756,381.305 47.805,384.769 46.650 C 388.239 45.493,390.499 37.518,390.787 25.414 C 391.080 13.119,387.399 11.066,384.404 21.853 M374.240 71.348 C 349.907 193.929,284.464 302.474,204.041 353.645 C 191.405 361.685,190.900 361.798,167.656 361.798 C 154.366 361.798,143.480 362.778,142.697 364.045 C 141.797 365.500,151.919 366.292,171.425 366.292 L 201.542 366.292 217.751 354.909 C 249.878 332.347,284.659 294.167,307.813 256.045 C 323.338 230.484,324.175 230.787,310.497 257.016 C 290.205 295.927,251.816 343.368,227.693 359.347 L 217.207 366.292 274.896 366.292 C 338.059 366.292,334.829 365.550,331.168 379.213 C 329.700 384.692,325.843 386.165,325.843 381.247 C 325.843 373.878,317.988 370.787,299.261 370.787 C 288.518 370.787,280.899 371.719,280.899 373.034 C 280.899 374.270,276.854 375.281,271.910 375.281 C 266.966 375.281,262.921 374.270,262.921 373.034 C 262.921 371.577,234.199 370.787,181.249 370.787 L 99.578 370.787 66.292 377.528 C 47.985 381.236,27.603 384.270,20.998 384.270 C 14.393 384.270,8.989 385.281,8.989 386.517 C 8.989 387.995,66.475 388.762,176.966 388.757 L 344.944 388.749 345.470 373.026 L 345.997 357.303 338.016 357.303 C 331.475 357.303,330.241 356.593,331.183 353.371 C 331.814 351.208,338.009 318.596,344.948 280.899 C 351.888 243.202,364.080 177.597,372.041 135.110 C 388.430 47.653,387.932 51.685,382.330 51.685 C 378.862 51.685,377.473 55.062,374.240 71.348 M330.254 250.899 C 303.555 322.413,281.042 361.798,266.864 361.798 L 257.851 361.798 263.797 354.494 C 294.926 316.258,324.679 264.127,336.986 226.254 C 338.519 221.536,340.246 218.149,340.824 218.726 C 341.401 219.304,336.645 233.782,330.254 250.899 M338.027 294.302 C 323.989 369.861,326.576 362.277,315.142 361.377 L 306.221 360.674 315.811 335.955 C 321.084 322.360,330.773 292.325,337.341 269.211 C 343.909 246.097,349.513 227.415,349.794 227.697 C 350.076 227.978,344.780 257.951,338.027 294.302 M314.014 267.933 C 286.790 323.021,257.341 361.798,242.728 361.798 L 234.029 361.798 252.473 343.258 C 276.259 319.349,296.600 291.939,313.483 261.043 C 331.772 227.576,332.067 231.402,314.014 267.933 M335.041 262.182 C 325.211 296.886,315.524 326.199,307.578 345.285 L 300.704 361.798 290.694 361.798 L 280.683 361.798 287.835 351.402 C 300.408 333.128,323.421 283.675,336.043 247.804 C 342.934 228.223,342.370 236.307,335.041 262.182 M340.363 373.951 C 339.512 379.626,337.873 384.270,336.722 384.270 C 334.832 384.270,335.851 372.347,338.430 364.285 C 340.548 357.664,341.838 364.116,340.363 373.951 M255.056 382.022 C 254.161 383.471,219.181 384.175,156.609 384.004 C 103.227 383.858,62.584 382.966,66.292 382.022 C 76.804 379.348,256.709 379.348,255.056 382.022 M276.404 382.022 C 276.404 383.258,272.300 384.270,267.283 384.270 C 261.774 384.270,258.712 383.380,259.551 382.022 C 260.314 380.787,264.419 379.775,268.672 379.775 C 272.925 379.775,276.404 380.787,276.404 382.022 " stroke="none" fill="#000000" fill-rule="evenodd"></path></g></svg>