<svg id="svg" xmlns="http://www.w3.org/2000/svg" xmlns:xlink="http://www.w3.org/1999/xlink" width="400" height="601.980198019802" viewBox="0, 0, 400,601.980198019802"><g id="svgg"><path id="path0" d="M176.612 28.545 C 179.858 56.164,174.374 61.493,146.508 57.796 C 130.661 55.694,126.733 56.314,126.733 60.920 C 126.733 68.342,134.092 70.752,146.535 67.405 C 169.207 61.306,176.126 67.315,177.417 94.223 C 178.946 126.118,185.418 126.006,186.940 94.059 L 188.119 69.307 205.941 68.621 C 215.743 68.243,225.990 67.798,228.713 67.630 C 247.936 66.451,230.926 55.975,210.891 56.654 L 188.119 57.426 188.036 33.702 C 187.968 14.313,186.688 9.734,181.035 8.645 C 174.905 7.465,174.401 9.733,176.612 28.545 M228.437 124.319 C 227.092 127.825,223.548 130.693,220.562 130.693 C 205.612 130.693,197.561 177.311,209.830 192.838 L 218.617 203.960 206.338 205.201 C 189.653 206.888,190.713 213.861,207.654 213.861 C 217.770 213.861,221.892 211.835,223.762 205.941 C 228.010 192.556,240.317 196.807,238.093 210.891 C 237.835 212.525,247.298 213.861,259.123 213.861 C 285.088 213.861,290.335 218.271,298.730 247.147 C 310.554 287.820,306.759 295.782,273.687 299.698 C 250.718 302.419,245.086 295.523,266.929 291.425 C 286.456 287.762,290.188 281.542,283.848 263.228 C 280.927 254.794,277.398 249.986,275.902 252.406 C 274.422 254.801,274.982 261.419,277.146 267.113 C 280.627 276.266,279.913 277.909,270.976 281.306 C 258.390 286.091,257.426 286.083,257.426 281.188 C 257.426 279.010,260.099 277.228,263.366 277.228 C 266.634 277.228,269.307 275.446,269.307 273.267 C 269.307 271.089,266.634 269.307,263.366 269.307 C 257.444 269.307,255.935 265.301,257.159 252.826 C 258.005 244.200,250.036 239.469,244.309 245.196 C 240.940 248.564,241.146 251.855,245.124 258.224 C 249.695 265.543,249.541 267.407,244.035 271.433 C 235.972 277.328,235.664 282.788,243.564 279.756 C 247.183 278.367,249.505 279.750,249.505 283.293 C 249.505 286.492,247.815 289.109,245.751 289.109 C 243.433 289.109,243.512 293.456,245.956 300.469 L 249.917 311.829 275.242 307.070 C 316.087 299.395,319.761 291.314,304.976 241.668 C 296.157 212.056,288.664 205.941,261.200 205.941 C 243.113 205.941,241.865 202.857,254.973 190.543 C 267.173 179.082,257.719 130.693,243.281 130.693 C 240.386 130.693,236.412 127.825,234.450 124.319 C 231.172 118.460,230.685 118.460,228.437 124.319 M150.040 148.047 C 132.881 169.598,128.591 181.185,132.301 195.967 C 135.523 208.803,157.463 233.663,165.570 233.663 C 169.901 233.663,167.221 228.867,157.101 218.503 C 131.089 191.864,141.347 142.574,172.903 142.574 C 183.518 142.574,196.420 132.620,190.526 128.977 C 179.833 122.368,164.876 129.413,150.040 148.047 M245.545 141.584 C 245.545 143.218,239.307 144.554,231.683 144.554 C 224.059 144.554,217.822 143.218,217.822 141.584 C 217.822 139.950,224.059 138.614,231.683 138.614 C 239.307 138.614,245.545 139.950,245.545 141.584 M178.218 326.499 C 178.218 441.506,179.597 502.970,182.178 502.970 C 184.758 502.970,186.139 442.322,186.139 328.947 C 186.139 217.203,184.721 154.047,182.178 152.475 C 179.561 150.857,178.218 209.860,178.218 326.499 M249.603 160.654 C 254.463 173.436,254.533 179.345,249.790 176.414 C 247.769 175.165,244.975 177.733,243.583 182.121 C 240.134 192.986,221.815 193.062,218.981 182.223 C 217.848 177.891,215.342 175.323,213.411 176.516 C 208.823 179.351,208.958 173.294,213.763 160.654 C 219.388 145.859,243.978 145.859,249.603 160.654 M157.555 168.624 C 152.694 179.293,156.261 190.041,165.707 193.189 C 169.388 194.417,169.393 192.449,165.729 184.407 C 162.117 176.479,162.099 172.951,165.652 169.398 C 171.374 163.676,171.661 158.416,166.252 158.416 C 164.027 158.416,160.113 163.010,157.555 168.624 M198.020 249.247 C 198.020 285.418,216.692 322.892,230.472 314.376 C 232.547 313.094,230.540 309.449,226.011 306.277 C 213.899 297.794,205.941 279.859,205.941 261.049 L 205.941 244.476 214.149 254.911 C 218.663 260.651,225.086 265.347,228.420 265.347 C 232.690 265.347,230.848 261.205,222.192 251.347 C 207.035 234.084,206.766 235.135,225.869 236.957 C 242.555 238.548,265.347 231.552,265.347 224.838 C 265.347 222.588,262.410 222.239,258.416 224.012 C 246.314 229.386,217.291 230.756,212.705 226.170 C 201.953 215.418,198.020 221.599,198.020 249.247 M194.059 328.947 C 194.059 351.856,195.491 363.939,198.020 362.376 C 200.198 361.030,201.980 344.885,201.980 326.499 C 201.980 306.853,200.347 293.069,198.020 293.069 C 195.671 293.069,194.059 307.669,194.059 328.947 M274.304 317.822 C 288.243 354.443,294.465 396.190,288.003 409.740 C 281.300 423.796,281.349 424.175,291.903 440.123 L 302.590 456.273 294.859 470.443 C 285.043 488.437,279.816 490.019,273.801 476.818 C 271.166 471.035,267.907 467.406,266.559 468.755 C 265.210 470.103,267.353 478.405,271.321 487.203 L 278.534 503.200 289.671 492.531 C 305.759 477.117,310.388 460.020,305.325 434.702 C 303.033 423.240,301.345 408.515,301.574 401.980 C 302.242 382.886,282.559 312.871,276.523 312.871 C 274.266 312.871,273.268 315.099,274.304 317.822 M209.901 352.709 C 209.901 372.847,211.458 387.624,213.450 386.393 C 218.156 383.485,218.255 316.832,213.554 316.832 C 211.545 316.832,209.901 332.976,209.901 352.709 M263.870 385.149 C 268.876 422.723,273.039 455.158,273.120 457.228 C 273.213 459.604,274.615 459.604,276.925 457.228 C 282.713 451.274,264.592 316.832,258.001 316.832 C 256.222 316.832,258.863 347.574,263.870 385.149 M235.237 349.505 C 236.450 363.119,238.553 396.975,239.911 424.740 C 241.440 455.994,243.854 474.312,246.249 472.832 C 252.565 468.928,243.532 324.752,236.971 324.752 C 234.545 324.752,233.880 334.260,235.237 349.505 M199.204 405.997 L 207.746 432.268 198.744 439.058 C 185.878 448.763,192.913 452.841,206.200 443.379 L 217.255 435.507 208.340 409.077 C 203.436 394.540,197.453 381.989,195.043 381.186 C 192.468 380.328,194.183 390.554,199.204 405.997 M217.822 469.967 C 217.822 480.132,218.748 487.522,219.881 486.390 C 223.759 482.512,225.211 451.485,221.514 451.485 C 219.483 451.485,217.822 459.802,217.822 469.967 M201.980 477.228 C 201.980 487.030,203.762 495.050,205.941 495.050 C 208.119 495.050,209.901 487.030,209.901 477.228 C 209.901 467.426,208.119 459.406,205.941 459.406 C 203.762 459.406,201.980 467.426,201.980 477.228 M227.338 495.474 C 223.853 499.326,222.872 503.176,225.036 504.514 C 227.109 505.795,231.008 504.190,233.700 500.946 C 236.391 497.703,243.722 495.050,249.990 495.050 C 256.258 495.050,261.386 493.211,261.386 490.965 C 261.386 484.459,234.028 488.082,227.338 495.474 M241.584 506.931 C 241.584 509.331,224.422 510.891,198.020 510.891 C 171.617 510.891,154.455 512.451,154.455 514.851 C 154.455 517.332,178.878 518.812,219.802 518.812 C 260.726 518.812,285.149 517.332,285.149 514.851 C 285.149 512.673,279.802 510.891,273.267 510.891 C 266.733 510.891,261.386 509.109,261.386 506.931 C 261.386 504.752,256.931 502.970,251.485 502.970 C 246.040 502.970,241.584 504.752,241.584 506.931 M139.438 543.714 C 123.185 560.275,115.016 590.099,126.733 590.099 C 128.911 590.099,130.693 584.223,130.693 577.041 C 130.693 567.145,134.329 560.433,145.712 549.319 L 160.730 534.653 220.155 534.653 L 279.581 534.653 294.246 549.672 C 304.990 560.675,308.911 568.087,308.911 577.395 C 308.911 584.382,310.693 590.099,312.871 590.099 C 324.902 590.099,316.414 559.655,299.850 543.399 L 282.869 526.733 219.487 526.733 L 156.105 526.733 139.438 543.714 M138.614 570.297 C 138.614 572.809,168.317 574.257,219.802 574.257 C 271.287 574.257,300.990 572.809,300.990 570.297 C 300.990 567.786,271.287 566.337,219.802 566.337 C 168.317 566.337,138.614 567.786,138.614 570.297 M138.614 586.139 C 138.614 588.650,168.317 590.099,219.802 590.099 C 271.287 590.099,300.990 588.650,300.990 586.139 C 300.990 583.627,271.287 582.178,219.802 582.178 C 168.317 582.178,138.614 583.627,138.614 586.139 M167.564 600.982 C 197.644 601.656,245.763 601.654,274.494 600.978 C 303.225 600.302,278.614 599.751,219.802 599.753 C 160.990 599.755,137.483 600.308,167.564 600.982 " stroke="none" fill="#000000" fill-rule="evenodd"></path></g></svg>