<svg id="svg" xmlns="http://www.w3.org/2000/svg" xmlns:xlink="http://www.w3.org/1999/xlink" width="400" height="521.2121212121212" viewBox="0, 0, 400,521.2121212121212"><g id="svgg"><path id="path0" d="M317.949 36.131 C 306.524 47.555,306.096 60.917,316.810 71.631 C 323.652 78.473,324.301 80.954,322.517 93.463 C 319.736 112.960,326.084 106.467,329.429 86.393 C 331.147 76.083,333.540 70.963,336.949 70.307 C 340.668 69.591,341.531 70.942,340.318 75.581 C 339.421 79.012,337.482 81.818,336.010 81.818 C 334.538 81.818,333.333 90.300,333.333 100.667 C 333.333 119.032,322.318 160.513,317.424 160.577 C 316.174 160.593,315.152 155.833,315.152 150.000 C 315.152 144.167,316.515 139.394,318.182 139.394 C 328.592 139.394,315.867 101.056,304.511 98.205 C 294.778 95.763,277.744 105.030,280.200 111.431 C 281.248 114.160,282.876 122.027,283.820 128.913 L 285.536 141.433 267.569 146.474 C 257.688 149.247,244.529 151.515,238.328 151.515 C 232.127 151.515,215.515 154.409,201.412 157.946 C 180.779 163.121,173.399 163.775,163.622 161.293 C 152.172 158.387,151.367 158.627,149.651 165.461 C 145.169 183.319,165.525 185.700,247.727 176.935 L 266.667 174.916 266.667 197.433 C 266.667 238.917,245.252 249.649,134.091 263.873 C 102.840 267.872,94.787 274.215,125.000 271.034 C 148.413 268.568,219.932 255.764,242.424 250.011 C 285.626 238.961,313.721 237.761,310.130 247.118 C 309.159 249.648,316.345 262.073,327.129 276.508 C 342.781 297.461,345.557 302.989,344.250 310.606 C 338.881 341.897,338.632 363.636,343.643 363.636 C 350.130 363.636,350.668 361.778,354.471 326.248 L 357.662 296.436 338.290 271.627 C 316.823 244.135,316.710 243.582,324.570 204.042 C 327.209 190.761,327.403 183.065,325.219 178.174 C 322.787 172.726,323.990 165.654,330.753 145.644 C 335.793 130.729,339.394 113.620,339.394 104.583 C 339.394 96.062,340.577 87.795,342.024 86.212 C 347.295 80.441,348.665 63.636,343.864 63.636 C 338.014 63.636,338.074 54.862,343.939 52.611 C 351.261 49.801,349.190 46.246,339.394 44.808 C 330.594 43.517,327.275 46.255,333.201 49.918 C 336.621 52.032,333.935 60.324,327.830 66.495 C 324.062 70.304,322.964 70.131,319.327 65.158 C 308.540 50.406,319.305 33.333,339.394 33.333 C 346.061 33.333,351.515 31.970,351.515 30.303 C 351.515 22.928,326.874 27.206,317.949 36.131 M310.528 111.971 C 315.957 122.469,316.582 133.333,311.757 133.333 C 309.481 133.333,308.797 139.345,309.682 151.581 C 311.211 172.713,308.391 173.440,298.497 154.463 C 288.420 135.132,284.306 109.735,290.650 106.024 C 299.332 100.947,305.833 102.892,310.528 111.971 M295.276 162.130 L 302.481 174.260 294.875 192.433 C 290.692 202.428,285.142 213.001,282.542 215.928 C 277.446 221.665,279.131 226.261,285.000 222.633 C 286.972 221.415,293.165 210.369,298.762 198.088 C 315.267 161.869,321.293 166.449,313.439 209.242 L 308.684 235.152 299.039 235.209 C 293.734 235.240,281.894 236.286,272.727 237.533 L 256.061 239.800 264.394 231.098 C 272.009 223.146,272.727 220.386,272.727 199.077 L 272.727 175.758 281.818 175.758 C 286.818 175.758,290.909 174.212,290.909 172.322 C 290.909 169.858,282.127 169.440,259.848 170.842 C 164.473 176.846,154.545 176.894,154.545 171.355 C 154.545 166.978,156.429 166.452,166.191 168.101 C 173.857 169.397,186.196 167.935,202.302 163.822 C 215.758 160.387,232.677 157.471,239.899 157.343 C 247.121 157.215,258.485 155.288,265.152 153.061 C 282.687 147.203,287.219 148.567,295.276 162.130 M221.212 191.248 C 221.212 196.698,251.200 225.568,253.976 222.792 C 254.966 221.802,247.998 213.216,238.494 203.711 C 227.922 193.139,221.212 188.300,221.212 191.248 M151.360 200.155 C 147.072 204.443,145.759 208.437,147.126 213.034 C 149.767 221.916,162.840 235.182,165.817 232.000 C 167.118 230.610,166.449 228.855,164.330 228.099 C 162.212 227.344,158.339 222.588,155.724 217.531 C 148.393 203.355,155.682 198.649,183.399 199.665 C 197.407 200.178,222.614 224.305,220.005 234.702 C 217.748 243.692,222.921 245.300,225.721 236.478 C 234.230 209.669,172.163 179.352,151.360 200.155 M177.402 227.063 C 176.443 228.615,177.111 230.782,178.886 231.879 C 188.432 237.778,174.207 242.424,146.599 242.424 C 129.674 242.424,118.182 243.650,118.182 245.455 C 118.182 247.262,129.798 248.485,146.970 248.485 C 179.570 248.485,191.500 242.731,184.811 230.234 C 181.221 223.525,179.930 222.973,177.402 227.063 M222.727 260.813 C 199.978 267.963,142.712 280.985,123.119 283.463 C 89.642 287.697,114.434 291.321,154.754 288.088 C 221.404 282.743,218.958 279.378,178.288 320.455 C 158.898 340.038,140.816 360.492,138.106 365.909 L 133.178 375.758 160.528 375.758 C 176.742 375.758,187.879 374.524,187.879 372.727 C 187.879 370.996,178.788 369.697,166.667 369.697 C 138.042 369.697,138.391 368.826,185.857 321.825 C 224.696 283.367,226.749 281.818,238.888 281.818 C 245.940 281.818,251.515 280.368,251.515 278.532 C 251.515 276.264,240.959 275.781,217.424 276.972 C 177.911 278.971,190.628 272.329,234.132 268.245 C 261.441 265.682,278.788 261.366,278.788 257.135 C 278.788 255.354,276.839 254.645,274.458 255.559 C 263.502 259.763,248.485 261.124,248.485 257.913 C 248.485 253.506,244.573 253.947,222.727 260.813 M259.109 286.206 C 244.119 300.154,230.894 310.971,229.719 310.245 C 225.921 307.898,199.514 315.878,202.198 318.562 C 203.634 319.997,209.378 319.838,215.073 318.204 C 230.843 313.681,229.324 315.414,197.670 338.046 C 173.932 355.020,169.550 359.278,175.023 360.059 C 183.482 361.265,226.591 330.907,254.943 303.777 L 275.038 284.549 295.095 298.569 L 315.152 312.590 315.152 344.174 L 315.152 375.758 337.700 375.758 C 350.102 375.758,361.091 374.394,362.121 372.727 C 363.302 370.816,356.092 369.697,342.603 369.697 L 321.212 369.697 321.212 339.540 L 321.212 309.382 306.818 299.681 C 281.041 282.307,280.719 281.863,288.149 273.955 C 293.880 267.854,294.054 260.404,288.458 260.727 C 287.306 260.793,274.099 272.259,259.109 286.206 M296.970 275.050 C 296.970 277.315,327.961 296.970,331.534 296.970 C 337.219 296.970,331.303 291.111,316.951 282.526 
C 299.820 272.280,296.970 271.213,296.970 275.050 M179.858 297.317 C 174.613 300.565,162.000 304.689,151.828 306.481 C 130.786 310.187,127.251 315.152,145.654 315.152 C 152.430 315.152,160.612 316.563,163.836 318.288 C 170.028 321.602,172.430 317.198,166.447 313.501 C 164.659 312.396,170.114 308.287,178.568 304.370 C 187.022 300.453,193.939 295.822,193.939 294.079 C 193.939 289.737,191.008 290.412,179.858 297.317 M280.216 309.188 C 277.151 312.574,268.758 316.827,261.564 318.638 C 249.605 321.650,243.259 327.456,252.273 327.140 C 265.140 326.688,290.909 312.316,290.909 305.591 C 290.909 301.149,285.994 302.802,280.216 309.188 M300.000 318.195 C 288.132 325.900,250.756 339.384,233.618 342.144 C 220.937 344.186,210.872 347.999,203.677 353.487 C 189.766 364.098,195.680 366.386,210.689 356.200 C 216.942 351.957,225.711 348.485,230.176 348.485 C 247.490 348.485,309.091 324.454,309.091 317.700 C 309.091 314.352,305.629 314.541,300.000 318.195 M299.085 341.210 C 294.416 343.741,282.484 347.241,272.570 348.988 C 259.423 351.304,246.406 357.764,255.303 357.558 C 259.093 357.470,292.796 351.325,297.263 349.907 C 302.197 348.341,303.030 349.639,303.030 358.887 C 303.030 364.832,304.394 369.697,306.061 369.697 C 307.727 369.697,309.091 362.197,309.091 353.030 C 309.091 343.864,308.750 336.418,308.333 336.485 C 307.917 336.552,303.755 338.678,299.085 341.210 M116.980 381.818 C 115.147 386.270,119.139 421.212,121.481 421.212 C 123.000 421.212,124.242 413.712,124.242 404.545 L 124.242 387.879 246.970 387.879 L 369.697 387.879 369.697 436.580 C 369.697 483.636,371.563 493.939,380.087 493.939 C 381.039 493.939,381.818 468.371,381.819 437.121 L 381.819 380.303 249.712 380.303 C 177.053 380.303,117.324 380.985,116.980 381.818 M284.848 407.576 C 284.848 415.076,286.212 421.212,287.879 421.212 C 289.545 421.212,290.909 415.076,290.909 407.576 C 290.909 400.076,289.545 393.939,287.879 393.939 C 286.212 393.939,284.848 400.076,284.848 407.576 M230.303 404.545 C 230.303 407.045,231.667 409.091,233.333 409.091 C 235.000 409.091,236.364 407.045,236.364 404.545 C 236.364 402.045,235.000 400.000,233.333 400.000 C 231.667 400.000,230.303 402.045,230.303 404.545 M248.485 407.576 C 248.485 411.742,249.848 415.152,251.515 415.152 C 253.182 415.152,254.545 411.742,254.545 407.576 C 254.545 403.409,253.182 400.000,251.515 400.000 C 249.848 400.000,248.485 403.409,248.485 407.576 M266.667 410.606 C 266.667 416.439,268.030 421.212,269.697 421.212 C 271.364 421.212,272.727 416.439,272.727 410.606 C 272.727 404.773,271.364 400.000,269.697 400.000 C 268.030 400.000,266.667 404.773,266.667 410.606 M321.212 443.939 C 321.212 471.212,322.362 487.879,324.242 487.879 C 326.123 487.879,327.273 471.212,327.273 443.939 C 327.273 416.667,326.123 400.000,324.242 400.000 C 322.362 400.000,321.212 416.667,321.212 443.939 M357.576 443.939 C 357.576 471.212,358.725 487.879,360.606 487.879 C 362.487 487.879,363.636 471.212,363.636 443.939 C 363.636 416.667,362.487 400.000,360.606 400.000 C 358.725 400.000,357.576 416.667,357.576 443.939 M303.030 427.094 C 303.030 441.355,304.291 451.515,306.061 451.515 C 307.809 451.515,309.091 441.979,309.091 428.967 C 309.091 416.565,307.727 405.576,306.061 404.545 C 304.136 403.356,303.030 411.585,303.030 427.094 M339.394 439.215 C 339.394 457.516,340.605 469.697,342.424 469.697 C 344.230 469.697,345.455 458.140,345.455 441.088 C 345.455 425.284,344.098 411.641,342.424 410.606 C 340.481 409.405,339.394 419.666,339.394 439.215 M21.212 463.636 C 21.212 485.859,20.034 500.000,18.182 500.000 C 16.515 500.000,15.152 501.364,15.152 503.030 C 15.152 505.018,79.293 506.061,201.515 506.061 C 323.737 506.061,387.879 505.018,387.879 503.030 C 387.879 501.145,370.707 500.000,342.424 500.000 L 296.970 500.000 296.970 463.636 L 296.970 427.273 159.091 427.273 L 21.212 427.273 21.212 463.636 M284.848 466.667 L 284.848 500.000 156.061 500.000 L 27.273 500.000 27.273 466.667 L 27.273 433.333 156.061 433.333 L 284.848 433.333 284.848 466.667 M33.333 442.424 C 33.333 444.374,64.141 445.455,119.697 445.455 C 175.253 445.455,206.061 444.374,206.061 442.424 C 206.061 440.475,175.253 439.394,119.697 439.394 C 64.141 439.394,33.333 440.475,33.333 442.424 M51.515 460.606 C 51.515 462.566,87.374 463.636,153.030 463.636 C 218.687 463.636,254.545 462.566,254.545 460.606 C 254.545 458.646,218.687 457.576,153.030 457.576 C 87.374 457.576,51.515 458.646,51.515 460.606 M39.394 484.848 C 39.394 486.795,69.192 487.879,122.727 487.879 C 176.263 487.879,206.061 486.795,206.061 484.848 C 206.061 482.902,176.263 481.818,122.727 481.818 C 69.192 481.818,39.394 482.902,39.394 484.848 " stroke="none" fill="#000000" fill-rule="evenodd"></path></g></svg>