<svg id="svg" xmlns="http://www.w3.org/2000/svg" xmlns:xlink="http://www.w3.org/1999/xlink" width="400" height="1145.7627118644068" viewBox="0, 0, 400,1145.7627118644068"><g id="svgg"><path id="path0" d="M176.271 73.280 C 176.271 79.659,231.485 94.915,254.571 94.915 C 276.503 94.915,262.466 82.780,235.593 78.508 C 219.746 75.989,199.915 72.218,191.525 70.127 C 183.136 68.037,176.271 69.455,176.271 73.280 M124.199 137.417 C 58.590 286.575,74.137 436.975,188.489 759.322 C 241.806 909.619,271.186 1000.805,271.186 1015.985 C 271.186 1021.405,243.936 1023.729,180.386 1023.729 C 90.374 1023.729,81.356 1025.940,81.356 1048.012 C 81.356 1049.572,137.797 1050.847,206.780 1050.847 C 285.876 1050.847,332.203 1048.343,332.203 1044.068 C 332.203 1040.339,329.358 1037.288,325.881 1037.288 C 313.013 1037.288,311.785 1010.308,321.833 948.351 C 357.863 726.194,306.280 421.819,187.077 153.195 C 165.304 104.129,162.933 106.129,227.753 118.883 C 297.193 132.545,311.864 138.982,311.864 155.787 C 311.864 171.874,313.196 171.785,261.017 159.186 C 213.247 147.652,201.157 146.834,206.512 155.499 C 208.669 158.990,233.276 166.928,261.194 173.139 C 304.962 182.876,312.526 186.714,316.113 201.006 C 321.848 223.858,319.648 224.566,277.651 213.390 C 257.316 207.978,236.684 203.515,231.803 203.470 C 216.840 203.335,229.247 215.174,249.088 219.964 C 316.674 236.280,318.644 237.283,318.644 255.365 C 318.644 273.448,294.017 275.101,253.135 259.762 C 242.300 255.697,241.853 256.534,249.707 266.195 C 254.673 272.304,272.215 279.323,288.690 281.793 C 316.388 285.947,318.644 287.804,318.644 306.450 C 318.644 326.323,318.239 326.547,290.667 321.889 C 255.843 316.005,260.111 329.511,295.153 336.085 C 315.766 339.952,318.644 342.988,318.644 360.867 C 318.644 379.029,316.774 380.884,301.426 377.950 C 290.560 375.873,285.129 377.457,286.703 382.245 C 288.075 386.417,295.823 390.805,303.921 391.997 C 318.904 394.202,326.833 433.898,312.291 433.898 C 306.012 433.898,309.240 475.224,317.057 494.915 C 330.188 527.994,337.030 255.592,325.135 173.292 C 321.395 147.416,317.007 124.917,315.383 123.293 C 312.247 120.156,164.034 88.392,152.542 88.393 C 148.814 88.394,136.059 110.455,124.199 137.417 M162.848 129.068 C 169.103 140.756,166.012 148.192,142.747 177.411 C 110.661 217.710,106.080 206.431,131.958 150.847 C 150.538 110.938,152.431 109.603,162.848 129.068 M189.831 193.880 C 189.831 204.680,105.788 271.991,102.752 263.622 C 99.929 255.838,116.114 230.289,148.566 191.302 C 172.642 162.379,189.831 163.453,189.831 193.880 M206.420 234.879 C 211.941 256.877,211.495 257.324,150.847 290.624 C 82.596 328.098,80.176 305.871,146.700 252.542 C 197.866 211.526,200.373 210.785,206.420 234.879 M227.225 292.010 C 232.786 317.327,238.704 312.642,169.000 338.098 C 75.978 372.068,70.110 349.520,159.322 300.910 C 224.101 265.613,221.502 265.954,227.225 292.010 M247.639 353.942 C 251.626 370.089,249.853 372.820,232.864 376.701 C 222.247 379.126,190.170 386.886,161.582 393.945 C 97.709 409.717,101.695 409.879,101.695 391.508 C 101.695 378.368,110.918 372.855,167.797 352.000 C 238.678 326.010,240.755 326.061,247.639 353.942 M260.908 394.915 C 272.448 429.172,272.130 429.380,189.831 441.254 C 146.949 447.442,111.481 452.131,111.012 451.676 C 90.134 431.398,103.183 421.123,170.932 404.492 C 253.213 384.294,257.187 383.871,260.908 394.915 M281.354 468.467 C 285.645 485.857,285.101 486.142,239.461 490.452 C 157.844 498.160,115.254 496.203,115.254 484.746 C 115.254 479.153,115.140 472.288,115.001 469.492 
C 114.692 463.294,265.921 441.749,272.402 447.068 C 274.934 449.147,278.963 458.776,281.354 468.467 M292.972 522.034 L 295.957 542.373 213.110 542.373 C 143.820 542.373,129.591 540.618,126.149 531.649 C 117.055 507.949,114.678 508.476,255.163 503.042 C 289.043 501.731,290.067 502.246,292.972 522.034 M300.970 566.656 C 311.968 595.318,308.635 596.610,223.729 596.610 C 178.983 596.610,142.331 594.322,142.280 591.525 C 142.229 588.729,140.348 579.576,138.100 571.186 C 132.716 551.098,293.285 546.631,300.970 566.656 M104.381 672.106 C 83.756 773.961,86.995 1020.055,108.784 1006.588 C 112.464 1004.314,113.720 999.613,111.575 996.142 C 109.266 992.406,135.508 989.831,175.871 989.831 C 216.816 989.831,244.068 987.121,244.068 983.051 C 244.068 978.983,216.949 976.271,176.271 976.271 C 122.265 976.271,108.475 974.315,108.475 966.656 C 108.475 961.368,106.623 952.215,104.359 946.317 C 100.783 936.997,108.770 935.593,165.376 935.593 C 204.278 935.593,230.508 932.863,230.508 928.814 C 230.508 924.770,204.520 922.034,166.102 922.034 L 101.695 922.034 101.695 901.695 L 101.695 881.356 155.932 881.356 C 187.571 881.356,210.169 878.531,210.169 874.576 C 210.169 870.621,187.571 867.797,155.932 867.797 L 101.695 867.797 101.695 847.458 L 101.695 827.119 149.553 827.119 C 179.731 827.119,195.863 824.614,193.220 820.339 C 190.916 816.610,169.380 813.559,145.363 813.559 L 101.695 813.559 101.695 793.220 C 101.695 773.087,102.072 772.881,138.983 772.881 C 159.492 772.881,176.271 769.831,176.271 766.102 C 176.271 762.373,159.165 759.322,138.258 759.322 C 106.380 759.322,100.908 757.591,104.359 748.598 C 106.623 742.700,108.475 733.547,108.475 728.259 C 108.475 721.790,116.239 718.644,132.203 718.644 C 145.254 718.644,155.932 715.593,155.932 711.864 C 155.932 708.136,146.780 705.085,135.593 705.085 C 111.825 705.085,105.976 677.328,127.119 664.868 C 136.864 659.124,137.314 656.777,129.640 651.729 C 124.501 648.349,122.378 642.216,124.922 638.100 C 127.466 633.984,126.778 625.667,123.392 619.618 C 118.924 611.632,113.716 626.011,104.381 672.106 M310.620 632.203 L 312.765 650.847 237.571 650.847 C 160.375 650.847,149.153 646.031,149.153 612.903 C 149.153 611.163,185.000 610.599,228.814 611.649 L 308.475 613.559 310.620 632.203 M314.529 675.131 C 325.312 703.231,321.360 705.085,250.680 705.085 C 181.554 705.085,169.492 699.479,169.492 667.355 C 169.492 657.601,310.707 665.171,314.529 675.131 M318.644 738.983 L 318.644 759.322 261.255 759.322 C 211.456 759.322,202.939 757.588,196.849 746.208 C 183.294 720.882,187.954 718.644,254.237 718.644 L 318.644 718.644 318.644 738.983 M318.644 793.220 L 318.644 813.559 267.797 813.559 C 239.831 813.559,216.907 811.271,216.857 808.475 C 216.806 805.678,214.924 796.525,212.676 788.136 C 208.682 773.234,209.858 772.881,263.616 772.881 L 318.644 772.881 318.644 793.220 M318.644 847.458 C 318.644 867.711,318.479 867.797,279.452 867.797 C 242.132 867.797,239.894 866.826,232.584 847.458 L 224.907 827.119 271.775 827.119 L 318.644 827.119 318.644 847.458 M316.138 896.610 C 313.889 905.000,312.008 914.153,311.957 916.949 C 311.638 934.448,258.587 920.981,251.863 901.695 L 244.773 881.356 282.499 881.356 C 318.314 881.356,320.018 882.129,316.138 896.610 M309.200 946.317 C 306.937 952.215,305.085 961.368,305.085 966.656 C 305.085 980.949,279.525 978.293,271.425 963.158 C 259.713 941.273,263.305 935.593,288.861 935.593 C 308.375 935.593,312.484 937.760,309.200 946.317 M298.305 1003.390 C 298.305 1010.847,295.254 1016.949,291.525 1016.949 C 287.797 1016.949,284.746 1015.673,284.746 1014.114 C 284.746 1012.554,282.894 1006.453,280.631 1000.554 C 277.930 993.517,280.261 989.831,287.410 989.831 C 293.785 989.831,298.305 995.456,298.305 1003.390 " stroke="none" fill="#000000" fill-rule="evenodd"></path></g></svg>